<svg width="16" height="16" viewBox="0 0 16 16" fill="none" xmlns="http://www.w3.org/2000/svg">
<mask id="mask0_49_659" style="mask-type:alpha" maskUnits="userSpaceOnUse" x="0" y="0" width="16" height="16">
<rect width="16" height="16" fill="#D9D9D9"/>
</mask>
<g mask="url(#mask0_49_659)">
<path d="M7.33335 13.3333C7.14446 13.3333 6.98612 13.2694 6.85835 13.1417C6.73057 13.0139 6.66668 12.8556 6.66668 12.6667V8.66667L2.80001 3.73334C2.63335 3.51112 2.60835 3.27778 2.72501 3.03334C2.84168 2.78889 3.04446 2.66667 3.33335 2.66667H12.6667C12.9556 2.66667 13.1583 2.78889 13.275 3.03334C13.3917 3.27778 13.3667 3.51112 13.2 3.73334L9.33335 8.66667V12.6667C9.33335 12.8556 9.26946 13.0139 9.14168 13.1417C9.0139 13.2694 8.85557 13.3333 8.66668 13.3333H7.33335ZM8.00001 8.20001L11.3 4.00001H4.70001L8.00001 8.20001Z" fill="white"/>
</g>
</svg>
