<svg width="49" height="37" viewBox="0 0 49 37" fill="none" xmlns="http://www.w3.org/2000/svg">
<path d="M25 17.25H23C20.58 17.25 19.25 15.92 19.25 13.5V11.5C19.25 9.08 20.58 7.75 23 7.75H25C27.42 7.75 28.75 9.08 28.75 11.5V13.5C28.75 15.92 27.42 17.25 25 17.25ZM23 9.25C21.42 9.25 20.75 9.92 20.75 11.5V13.5C20.75 15.08 21.42 15.75 23 15.75H25C26.58 15.75 27.25 15.08 27.25 13.5V11.5C27.25 9.92 26.58 9.25 25 9.25H23Z" fill="white"/>
<path d="M13 29.25H11C8.58 29.25 7.25 27.92 7.25 25.5V23.5C7.25 21.08 8.58 19.75 11 19.75H13C15.42 19.75 16.75 21.08 16.75 23.5V25.5C16.75 27.92 15.42 29.25 13 29.25ZM11 21.25C9.42 21.25 8.75 21.92 8.75 23.5V25.5C8.75 27.08 9.42 27.75 11 27.75H13C14.58 27.75 15.25 27.08 15.25 25.5V23.5C15.25 21.92 14.58 21.25 13 21.25H11Z" fill="white"/>
<path d="M12 17.25C9.38 17.25 7.25 15.12 7.25 12.5C7.25 9.88 9.38 7.75 12 7.75C14.62 7.75 16.75 9.88 16.75 12.5C16.75 15.12 14.62 17.25 12 17.25ZM12 9.25C10.21 9.25 8.75 10.71 8.75 12.5C8.75 14.29 10.21 15.75 12 15.75C13.79 15.75 15.25 14.29 15.25 12.5C15.25 10.71 13.79 9.25 12 9.25Z" fill="white"/>
<path d="M24 29.25C21.38 29.25 19.25 27.12 19.25 24.5C19.25 21.88 21.38 19.75 24 19.75C26.62 19.75 28.75 21.88 28.75 24.5C28.75 27.12 26.62 29.25 24 29.25ZM24 21.25C22.21 21.25 20.75 22.71 20.75 24.5C20.75 26.29 22.21 27.75 24 27.75C25.79 27.75 27.25 26.29 27.25 24.5C27.25 22.71 25.79 21.25 24 21.25Z" fill="white"/>
<line x1="48.5" y1="1.5" x2="48.5" y2="35.5" stroke="white" stroke-opacity="0.1"/>
</svg>
