<svg width="16" height="16" viewBox="0 0 16 16" fill="none" xmlns="http://www.w3.org/2000/svg">
<mask id="mask0_1_1598" style="mask-type:alpha" maskUnits="userSpaceOnUse" x="0" y="0" width="16" height="16">
<rect width="16" height="16" fill="#D9D9D9"/>
</mask>
<g mask="url(#mask0_1_1598)">
<path d="M0.666672 13.3333V11.4667C0.666672 11.0889 0.763894 10.7417 0.958338 10.425C1.15278 10.1083 1.41112 9.86667 1.73334 9.7C2.42223 9.35556 3.12223 9.09723 3.83334 8.925C4.54445 8.75278 5.26667 8.66667 6.00001 8.66667C6.73334 8.66667 7.45556 8.75278 8.16667 8.925C8.87778 9.09723 9.57778 9.35556 10.2667 9.7C10.5889 9.86667 10.8472 10.1083 11.0417 10.425C11.2361 10.7417 11.3333 11.0889 11.3333 11.4667V13.3333H0.666672ZM12.6667 13.3333V11.3333C12.6667 10.8444 12.5306 10.375 12.2583 9.925C11.9861 9.475 11.6 9.08889 11.1 8.76667C11.6667 8.83334 12.2 8.94723 12.7 9.10834C13.2 9.26945 13.6667 9.46667 14.1 9.7C14.5 9.92223 14.8056 10.1694 15.0167 10.4417C15.2278 10.7139 15.3333 11.0111 15.3333 11.3333V13.3333H12.6667ZM6.00001 8C5.26667 8 4.63889 7.73889 4.11667 7.21667C3.59445 6.69445 3.33334 6.06667 3.33334 5.33334C3.33334 4.6 3.59445 3.97223 4.11667 3.45001C4.63889 2.92778 5.26667 2.66667 6.00001 2.66667C6.73334 2.66667 7.36112 2.92778 7.88334 3.45001C8.40556 3.97223 8.66667 4.6 8.66667 5.33334C8.66667 6.06667 8.40556 6.69445 7.88334 7.21667C7.36112 7.73889 6.73334 8 6.00001 8ZM12.6667 5.33334C12.6667 6.06667 12.4056 6.69445 11.8833 7.21667C11.3611 7.73889 10.7333 8 10 8C9.87778 8 9.72223 7.98612 9.53334 7.95834C9.34445 7.93056 9.18889 7.9 9.06667 7.86667C9.36667 7.51112 9.59723 7.11667 9.75834 6.68334C9.91945 6.25001 10 5.8 10 5.33334C10 4.86667 9.91945 4.41667 9.75834 3.98334C9.59723 3.55001 9.36667 3.15556 9.06667 2.80001C9.22223 2.74445 9.37778 2.70834 9.53334 2.69167C9.68889 2.67501 9.84445 2.66667 10 2.66667C10.7333 2.66667 11.3611 2.92778 11.8833 3.45001C12.4056 3.97223 12.6667 4.6 12.6667 5.33334ZM2.00001 12H10V11.4667C10 11.3444 9.96945 11.2333 9.90834 11.1333C9.84723 11.0333 9.76667 10.9556 9.66667 10.9C9.06667 10.6 8.46112 10.375 7.85001 10.225C7.23889 10.075 6.62223 10 6.00001 10C5.37778 10 4.76112 10.075 4.15001 10.225C3.53889 10.375 2.93334 10.6 2.33334 10.9C2.23334 10.9556 2.15278 11.0333 2.09167 11.1333C2.03056 11.2333 2.00001 11.3444 2.00001 11.4667V12ZM6.00001 6.66667C6.36667 6.66667 6.68056 6.53612 6.94167 6.275C7.20278 6.01389 7.33334 5.7 7.33334 5.33334C7.33334 4.96667 7.20278 4.65278 6.94167 4.39167C6.68056 4.13056 6.36667 4.00001 6.00001 4.00001C5.63334 4.00001 5.31945 4.13056 5.05834 4.39167C4.79723 4.65278 4.66667 4.96667 4.66667 5.33334C4.66667 5.7 4.79723 6.01389 5.05834 6.275C5.31945 6.53612 5.63334 6.66667 6.00001 6.66667Z" fill="white"/>
</g>
</svg>
