<svg width="16" height="16" viewBox="0 0 16 16" fill="none" xmlns="http://www.w3.org/2000/svg">
<mask id="mask0_49_81" style="mask-type:alpha" maskUnits="userSpaceOnUse" x="0" y="0" width="16" height="16">
<rect width="16" height="16" fill="#D9D9D9"/>
</mask>
<g mask="url(#mask0_49_81)">
<path d="M12 9.33334V7.33334H9.99996V6H12V4.00001H13.3333V6H15.3333V7.33334H13.3333V9.33334H12ZM5.99996 8C5.26663 8 4.63885 7.73889 4.11663 7.21667C3.5944 6.69445 3.33329 6.06667 3.33329 5.33334C3.33329 4.6 3.5944 3.97223 4.11663 3.45001C4.63885 2.92778 5.26663 2.66667 5.99996 2.66667C6.73329 2.66667 7.36107 2.92778 7.88329 3.45001C8.40551 3.97223 8.66663 4.6 8.66663 5.33334C8.66663 6.06667 8.40551 6.69445 7.88329 7.21667C7.36107 7.73889 6.73329 8 5.99996 8ZM0.666626 13.3333V11.4667C0.666626 11.0889 0.763848 10.7417 0.958293 10.425C1.15274 10.1083 1.41107 9.86667 1.73329 9.7C2.42218 9.35556 3.12218 9.09723 3.83329 8.925C4.5444 8.75278 5.26663 8.66667 5.99996 8.66667C6.73329 8.66667 7.45551 8.75278 8.16663 8.925C8.87774 9.09723 9.57774 9.35556 10.2666 9.7C10.5888 9.86667 10.8472 10.1083 11.0416 10.425C11.2361 10.7417 11.3333 11.0889 11.3333 11.4667V13.3333H0.666626ZM1.99996 12H9.99996V11.4667C9.99996 11.3444 9.9694 11.2333 9.90829 11.1333C9.84718 11.0333 9.76663 10.9556 9.66663 10.9C9.06663 10.6 8.46107 10.375 7.84996 10.225C7.23885 10.075 6.62218 10 5.99996 10C5.37774 10 4.76107 10.075 4.14996 10.225C3.53885 10.375 2.93329 10.6 2.33329 10.9C2.23329 10.9556 2.15274 11.0333 2.09163 11.1333C2.03051 11.2333 1.99996 11.3444 1.99996 11.4667V12ZM5.99996 6.66667C6.36663 6.66667 6.68051 6.53612 6.94163 6.275C7.20274 6.01389 7.33329 5.7 7.33329 5.33334C7.33329 4.96667 7.20274 4.65278 6.94163 4.39167C6.68051 4.13056 6.36663 4.00001 5.99996 4.00001C5.63329 4.00001 5.3194 4.13056 5.05829 4.39167C4.79718 4.65278 4.66663 4.96667 4.66663 5.33334C4.66663 5.7 4.79718 6.01389 5.05829 6.275C5.3194 6.53612 5.63329 6.66667 5.99996 6.66667Z" fill="white"/>
</g>
</svg>
