<svg width="16" height="16" viewBox="0 0 16 16" fill="none" xmlns="http://www.w3.org/2000/svg">
<mask id="mask0_1_1595" style="mask-type:alpha" maskUnits="userSpaceOnUse" x="0" y="0" width="16" height="16">
<rect width="16" height="16" fill="#D9D9D9"/>
</mask>
<g mask="url(#mask0_1_1595)">
<path d="M8.26665 8.26641C7.49665 8.26641 6.83748 7.99225 6.28915 7.44391C5.74082 6.89558 5.46665 6.23641 5.46665 5.46641C5.46665 4.69641 5.74082 4.03725 6.28915 3.48891C6.83748 2.94058 7.49665 2.66641 8.26665 2.66641C9.03665 2.66641 9.69582 2.94058 10.2441 3.48891C10.7925 4.03725 11.0666 4.69641 11.0666 5.46641C11.0666 6.23641 10.7925 6.89558 10.2441 7.44391C9.69582 7.99225 9.03665 8.26641 8.26665 8.26641ZM2.66665 13.8664V11.9064C2.66665 11.5097 2.76873 11.1452 2.9729 10.8127C3.17707 10.4802 3.44832 10.2264 3.78665 10.0514C4.50998 9.68975 5.24498 9.4185 5.99165 9.23766C6.73832 9.05683 7.49665 8.96641 8.26665 8.96641C9.03665 8.96641 9.79498 9.05683 10.5416 9.23766C11.2883 9.4185 12.0233 9.68975 12.7466 10.0514C13.085 10.2264 13.3562 10.4802 13.5604 10.8127C13.7646 11.1452 13.8666 11.5097 13.8666 11.9064V13.8664H2.66665ZM4.06665 12.4664H12.4667V11.9064C12.4667 11.7781 12.4346 11.6614 12.3704 11.5564C12.3062 11.4514 12.2216 11.3697 12.1166 11.3114C11.4866 10.9964 10.8508 10.7602 10.2091 10.6027C9.56748 10.4452 8.91998 10.3664 8.26665 10.3664C7.61332 10.3664 6.96582 10.4452 6.32415 10.6027C5.68248 10.7602 5.04665 10.9964 4.41665 11.3114C4.31165 11.3697 4.22707 11.4514 4.1629 11.5564C4.09873 11.6614 4.06665 11.7781 4.06665 11.9064V12.4664ZM8.26665 6.86641C8.65165 6.86641 8.98123 6.72933 9.2554 6.45516C9.52957 6.181 9.66665 5.85141 9.66665 5.46641C9.66665 5.08141 9.52957 4.75183 9.2554 4.47766C8.98123 4.2035 8.65165 4.06641 8.26665 4.06641C7.88165 4.06641 7.55207 4.2035 7.2779 4.47766C7.00373 4.75183 6.86665 5.08141 6.86665 5.46641C6.86665 5.85141 7.00373 6.181 7.2779 6.45516C7.55207 6.72933 7.88165 6.86641 8.26665 6.86641Z" fill="#033089"/>
</g>
</svg>
