<svg width="164" height="34" viewBox="0 0 164 34" fill="none" xmlns="http://www.w3.org/2000/svg">
<path d="M0.5 4C0.5 2.067 2.067 0.5 4 0.5H76.5V33.5H4C2.067 33.5 0.5 31.933 0.5 30V4Z" stroke="#033089"/>
<mask id="mask0_1_1593" style="mask-type:alpha" maskUnits="userSpaceOnUse" x="14" y="9" width="16" height="16">
<rect x="14" y="9" width="16" height="16" fill="#D9D9D9"/>
</mask>
<g mask="url(#mask0_1_1593)">
<path d="M22.2666 17.2664C21.4966 17.2664 20.8375 16.9922 20.2891 16.4439C19.7408 15.8956 19.4666 15.2364 19.4666 14.4664C19.4666 13.6964 19.7408 13.0372 20.2891 12.4889C20.8375 11.9406 21.4966 11.6664 22.2666 11.6664C23.0366 11.6664 23.6958 11.9406 24.2441 12.4889C24.7925 13.0372 25.0666 13.6964 25.0666 14.4664C25.0666 15.2364 24.7925 15.8956 24.2441 16.4439C23.6958 16.9922 23.0366 17.2664 22.2666 17.2664ZM16.6666 22.8664V20.9064C16.6666 20.5097 16.7687 20.1452 16.9729 19.8127C17.1771 19.4802 17.4483 19.2264 17.7866 19.0514C18.51 18.6897 19.245 18.4185 19.9916 18.2377C20.7383 18.0568 21.4966 17.9664 22.2666 17.9664C23.0366 17.9664 23.795 18.0568 24.5416 18.2377C25.2883 18.4185 26.0233 18.6897 26.7466 19.0514C27.085 19.2264 27.3562 19.4802 27.5604 19.8127C27.7646 20.1452 27.8666 20.5097 27.8666 20.9064V22.8664H16.6666ZM18.0666 21.4664H26.4667V20.9064C26.4667 20.7781 26.4346 20.6614 26.3704 20.5564C26.3062 20.4514 26.2216 20.3697 26.1166 20.3114C25.4866 19.9964 24.8508 19.7602 24.2091 19.6027C23.5675 19.4452 22.92 19.3664 22.2666 19.3664C21.6133 19.3664 20.9658 19.4452 20.3241 19.6027C19.6825 19.7602 19.0466 19.9964 18.4166 20.3114C18.3116 20.3697 18.2271 20.4514 18.1629 20.5564C18.0987 20.6614 18.0666 20.7781 18.0666 20.9064V21.4664ZM22.2666 15.8664C22.6516 15.8664 22.9812 15.7293 23.2554 15.4552C23.5296 15.181 23.6666 14.8514 23.6666 14.4664C23.6666 14.0814 23.5296 13.7518 23.2554 13.4777C22.9812 13.2035 22.6516 13.0664 22.2666 13.0664C21.8816 13.0664 21.5521 13.2035 21.2779 13.4777C21.0037 13.7518 20.8666 14.0814 20.8666 14.4664C20.8666 14.8514 21.0037 15.181 21.2779 15.4552C21.5521 15.7293 21.8816 15.8664 22.2666 15.8664Z" fill="#033089"/>
</g>
<path d="M44.46 19.4844C44.46 19.252 44.4235 19.0469 44.3506 18.8691C44.2822 18.6868 44.1592 18.5228 43.9814 18.377C43.8083 18.2311 43.5667 18.0921 43.2568 17.96C42.9515 17.8278 42.5641 17.6934 42.0947 17.5566C41.6025 17.4108 41.1582 17.249 40.7617 17.0713C40.3652 16.889 40.0257 16.6816 39.7432 16.4492C39.4606 16.2168 39.2441 15.9502 39.0938 15.6494C38.9434 15.3486 38.8682 15.0046 38.8682 14.6172C38.8682 14.2298 38.9479 13.8721 39.1074 13.5439C39.2669 13.2158 39.4948 12.931 39.791 12.6895C40.0918 12.4434 40.4495 12.252 40.8643 12.1152C41.279 11.9785 41.7415 11.9102 42.252 11.9102C42.9993 11.9102 43.6328 12.0537 44.1523 12.3408C44.6764 12.6234 45.0752 12.9948 45.3486 13.4551C45.6221 13.9108 45.7588 14.3984 45.7588 14.918H44.4463C44.4463 14.5443 44.3665 14.2139 44.207 13.9268C44.0475 13.6351 43.806 13.4072 43.4824 13.2432C43.1589 13.0745 42.7487 12.9902 42.252 12.9902C41.7826 12.9902 41.3952 13.0609 41.0898 13.2021C40.7845 13.3434 40.5566 13.5348 40.4062 13.7764C40.2604 14.0179 40.1875 14.2936 40.1875 14.6035C40.1875 14.8132 40.2308 15.0046 40.3174 15.1777C40.4085 15.3464 40.5475 15.5036 40.7344 15.6494C40.9258 15.7952 41.1673 15.9297 41.459 16.0527C41.7552 16.1758 42.1084 16.2943 42.5186 16.4082C43.0837 16.5677 43.5713 16.7454 43.9814 16.9414C44.3916 17.1374 44.7288 17.3584 44.9932 17.6045C45.262 17.846 45.4603 18.1217 45.5879 18.4316C45.7201 18.737 45.7861 19.0833 45.7861 19.4707C45.7861 19.8763 45.7041 20.2432 45.54 20.5713C45.376 20.8994 45.1413 21.1797 44.8359 21.4121C44.5306 21.6445 44.1637 21.8245 43.7354 21.9521C43.3115 22.0752 42.8376 22.1367 42.3135 22.1367C41.8532 22.1367 41.3997 22.0729 40.9531 21.9453C40.5111 21.8177 40.1077 21.6263 39.7432 21.3711C39.3831 21.1159 39.0938 20.8014 38.875 20.4277C38.6608 20.0495 38.5537 19.612 38.5537 19.1152H39.8662C39.8662 19.457 39.9323 19.751 40.0645 19.9971C40.1966 20.2386 40.3766 20.4391 40.6045 20.5986C40.8369 20.7581 41.099 20.8766 41.3906 20.9541C41.6868 21.027 41.9945 21.0635 42.3135 21.0635C42.7738 21.0635 43.1634 20.9997 43.4824 20.8721C43.8014 20.7445 44.043 20.5622 44.207 20.3252C44.3757 20.0882 44.46 19.8079 44.46 19.4844ZM50.3457 22.1367C49.8307 22.1367 49.3636 22.0501 48.9443 21.877C48.5296 21.6992 48.1719 21.4508 47.8711 21.1318C47.5749 20.8128 47.347 20.4346 47.1875 19.9971C47.028 19.5596 46.9482 19.0811 46.9482 18.5615V18.2744C46.9482 17.6729 47.0371 17.1374 47.2148 16.668C47.3926 16.194 47.6341 15.793 47.9395 15.4648C48.2448 15.1367 48.5911 14.8883 48.9785 14.7197C49.3659 14.5511 49.7669 14.4668 50.1816 14.4668C50.7103 14.4668 51.166 14.5579 51.5488 14.7402C51.9362 14.9225 52.2529 15.1777 52.499 15.5059C52.7451 15.8294 52.9274 16.2122 53.0459 16.6543C53.1644 17.0918 53.2236 17.5703 53.2236 18.0898V18.6572H47.7002V17.625H51.959V17.5293C51.9408 17.2012 51.8724 16.8822 51.7539 16.5723C51.64 16.2624 51.4577 16.0072 51.207 15.8066C50.9564 15.6061 50.6146 15.5059 50.1816 15.5059C49.8945 15.5059 49.6302 15.5674 49.3887 15.6904C49.1471 15.8089 48.9398 15.9867 48.7666 16.2236C48.5934 16.4606 48.459 16.75 48.3633 17.0918C48.2676 17.4336 48.2197 17.8278 48.2197 18.2744V18.5615C48.2197 18.9124 48.2676 19.2428 48.3633 19.5527C48.4635 19.8581 48.6071 20.127 48.7939 20.3594C48.9854 20.5918 49.2155 20.7741 49.4844 20.9062C49.7578 21.0384 50.0677 21.1045 50.4141 21.1045C50.8607 21.1045 51.2389 21.0133 51.5488 20.8311C51.8587 20.6488 52.1299 20.4049 52.3623 20.0996L53.1279 20.708C52.9684 20.9495 52.7656 21.1797 52.5195 21.3984C52.2734 21.6172 51.9704 21.7949 51.6104 21.9316C51.2549 22.0684 50.8333 22.1367 50.3457 22.1367ZM56.0742 11.5V22H54.8027V11.5H56.0742ZM59.9912 22H58.7266V13.8242C58.7266 13.291 58.8223 12.8421 59.0137 12.4775C59.2096 12.1084 59.4899 11.8304 59.8545 11.6436C60.2191 11.4521 60.652 11.3564 61.1533 11.3564C61.2992 11.3564 61.445 11.3656 61.5908 11.3838C61.7412 11.402 61.887 11.4294 62.0283 11.4658L61.96 12.498C61.8643 12.4753 61.7549 12.4593 61.6318 12.4502C61.5133 12.4411 61.3949 12.4365 61.2764 12.4365C61.0075 12.4365 60.7751 12.4912 60.5791 12.6006C60.3877 12.7054 60.2419 12.8604 60.1416 13.0654C60.0413 13.2705 59.9912 13.5234 59.9912 13.8242V22ZM61.5635 14.6035V15.5742H57.5576V14.6035H61.5635Z" fill="#033089"/>
<path d="M77 0H160C162.209 0 164 1.79086 164 4V30C164 32.2091 162.209 34 160 34H77V0Z" fill="#033089"/>
<mask id="mask1_1_1593" style="mask-type:alpha" maskUnits="userSpaceOnUse" x="91" y="9" width="16" height="16">
<rect x="91" y="9" width="16" height="16" fill="#D9D9D9"/>
</mask>
<g mask="url(#mask1_1_1593)">
<path d="M91.6667 22.3333V20.4667C91.6667 20.0889 91.7639 19.7417 91.9583 19.425C92.1528 19.1083 92.4111 18.8667 92.7333 18.7C93.4222 18.3556 94.1222 18.0972 94.8333 17.925C95.5444 17.7528 96.2667 17.6667 97 17.6667C97.7333 17.6667 98.4556 17.7528 99.1667 17.925C99.8778 18.0972 100.578 18.3556 101.267 18.7C101.589 18.8667 101.847 19.1083 102.042 19.425C102.236 19.7417 102.333 20.0889 102.333 20.4667V22.3333H91.6667ZM103.667 22.3333V20.3333C103.667 19.8444 103.531 19.375 103.258 18.925C102.986 18.475 102.6 18.0889 102.1 17.7667C102.667 17.8333 103.2 17.9472 103.7 18.1083C104.2 18.2694 104.667 18.4667 105.1 18.7C105.5 18.9222 105.806 19.1694 106.017 19.4417C106.228 19.7139 106.333 20.0111 106.333 20.3333V22.3333H103.667ZM97 17C96.2667 17 95.6389 16.7389 95.1167 16.2167C94.5944 15.6944 94.3333 15.0667 94.3333 14.3333C94.3333 13.6 94.5944 12.9722 95.1167 12.45C95.6389 11.9278 96.2667 11.6667 97 11.6667C97.7333 11.6667 98.3611 11.9278 98.8833 12.45C99.4056 12.9722 99.6667 13.6 99.6667 14.3333C99.6667 15.0667 99.4056 15.6944 98.8833 16.2167C98.3611 16.7389 97.7333 17 97 17ZM103.667 14.3333C103.667 15.0667 103.406 15.6944 102.883 16.2167C102.361 16.7389 101.733 17 101 17C100.878 17 100.722 16.9861 100.533 16.9583C100.344 16.9306 100.189 16.9 100.067 16.8667C100.367 16.5111 100.597 16.1167 100.758 15.6833C100.919 15.25 101 14.8 101 14.3333C101 13.8667 100.919 13.4167 100.758 12.9833C100.597 12.55 100.367 12.1556 100.067 11.8C100.222 11.7444 100.378 11.7083 100.533 11.6917C100.689 11.675 100.844 11.6667 101 11.6667C101.733 11.6667 102.361 11.9278 102.883 12.45C103.406 12.9722 103.667 13.6 103.667 14.3333ZM93 21H101V20.4667C101 20.3444 100.969 20.2333 100.908 20.1333C100.847 20.0333 100.767 19.9556 100.667 19.9C100.067 19.6 99.4611 19.375 98.85 19.225C98.2389 19.075 97.6222 19 97 19C96.3778 19 95.7611 19.075 95.15 19.225C94.5389 19.375 93.9333 19.6 93.3333 19.9C93.2333 19.9556 93.1528 20.0333 93.0917 20.1333C93.0306 20.2333 93 20.3444 93 20.4667V21ZM97 15.6667C97.3667 15.6667 97.6806 15.5361 97.9417 15.275C98.2028 15.0139 98.3333 14.7 98.3333 14.3333C98.3333 13.9667 98.2028 13.6528 97.9417 13.3917C97.6806 13.1306 97.3667 13 97 13C96.6333 13 96.3194 13.1306 96.0583 13.3917C95.7972 13.6528 95.6667 13.9667 95.6667 14.3333C95.6667 14.7 95.7972 15.0139 96.0583 15.275C96.3194 15.5361 96.6333 15.6667 97 15.6667Z" fill="white"/>
</g>
<path d="M119.833 12.0469V22H118.534V12.0469H119.833ZM123.032 12.0469V13.127H115.342V12.0469H123.032ZM126.703 22.1367C126.188 22.1367 125.721 22.0501 125.302 21.877C124.887 21.6992 124.529 21.4508 124.229 21.1318C123.932 20.8128 123.704 20.4346 123.545 19.9971C123.385 19.5596 123.306 19.0811 123.306 18.5615V18.2744C123.306 17.6729 123.395 17.1374 123.572 16.668C123.75 16.194 123.992 15.793 124.297 15.4648C124.602 15.1367 124.949 14.8883 125.336 14.7197C125.723 14.5511 126.124 14.4668 126.539 14.4668C127.068 14.4668 127.523 14.5579 127.906 14.7402C128.294 14.9225 128.61 15.1777 128.856 15.5059C129.103 15.8294 129.285 16.2122 129.403 16.6543C129.522 17.0918 129.581 17.5703 129.581 18.0898V18.6572H124.058V17.625H128.316V17.5293C128.298 17.2012 128.23 16.8822 128.111 16.5723C127.997 16.2624 127.815 16.0072 127.564 15.8066C127.314 15.6061 126.972 15.5059 126.539 15.5059C126.252 15.5059 125.988 15.5674 125.746 15.6904C125.505 15.8089 125.297 15.9867 125.124 16.2236C124.951 16.4606 124.816 16.75 124.721 17.0918C124.625 17.4336 124.577 17.8278 124.577 18.2744V18.5615C124.577 18.9124 124.625 19.2428 124.721 19.5527C124.821 19.8581 124.965 20.127 125.151 20.3594C125.343 20.5918 125.573 20.7741 125.842 20.9062C126.115 21.0384 126.425 21.1045 126.771 21.1045C127.218 21.1045 127.596 21.0133 127.906 20.8311C128.216 20.6488 128.487 20.4049 128.72 20.0996L129.485 20.708C129.326 20.9495 129.123 21.1797 128.877 21.3984C128.631 21.6172 128.328 21.7949 127.968 21.9316C127.612 22.0684 127.191 22.1367 126.703 22.1367ZM135.419 20.7354V16.9277C135.419 16.6361 135.36 16.3831 135.241 16.1689C135.127 15.9502 134.954 15.7816 134.722 15.6631C134.489 15.5446 134.202 15.4854 133.86 15.4854C133.541 15.4854 133.261 15.54 133.02 15.6494C132.783 15.7588 132.596 15.9023 132.459 16.0801C132.327 16.2578 132.261 16.4492 132.261 16.6543H130.996C130.996 16.39 131.064 16.1279 131.201 15.8682C131.338 15.6084 131.534 15.3737 131.789 15.1641C132.049 14.9499 132.359 14.7812 132.719 14.6582C133.083 14.5306 133.489 14.4668 133.936 14.4668C134.473 14.4668 134.947 14.5579 135.357 14.7402C135.772 14.9225 136.096 15.1982 136.328 15.5674C136.565 15.932 136.684 16.39 136.684 16.9414V20.3867C136.684 20.6328 136.704 20.8949 136.745 21.1729C136.791 21.4508 136.857 21.6901 136.943 21.8906V22H135.624C135.56 21.8542 135.51 21.6605 135.474 21.4189C135.437 21.1729 135.419 20.945 135.419 20.7354ZM135.638 17.5156L135.651 18.4043H134.373C134.013 18.4043 133.692 18.4339 133.409 18.4932C133.127 18.5479 132.89 18.6322 132.698 18.7461C132.507 18.86 132.361 19.0036 132.261 19.1768C132.16 19.3454 132.11 19.5436 132.11 19.7715C132.11 20.0039 132.163 20.2158 132.268 20.4072C132.372 20.5986 132.53 20.7513 132.739 20.8652C132.953 20.9746 133.215 21.0293 133.525 21.0293C133.913 21.0293 134.255 20.9473 134.551 20.7832C134.847 20.6191 135.082 20.4186 135.255 20.1816C135.433 19.9447 135.528 19.7145 135.542 19.4912L136.082 20.0996C136.05 20.291 135.964 20.5029 135.822 20.7354C135.681 20.9678 135.492 21.1911 135.255 21.4053C135.022 21.6149 134.744 21.7904 134.421 21.9316C134.102 22.0684 133.742 22.1367 133.341 22.1367C132.84 22.1367 132.4 22.0387 132.021 21.8428C131.648 21.6468 131.356 21.3848 131.146 21.0566C130.941 20.724 130.839 20.3525 130.839 19.9424C130.839 19.5459 130.916 19.1973 131.071 18.8965C131.226 18.5911 131.45 18.3382 131.741 18.1377C132.033 17.9326 132.384 17.7777 132.794 17.6729C133.204 17.568 133.662 17.5156 134.168 17.5156H135.638ZM139.931 16.0732V22H138.659V14.6035H139.862L139.931 16.0732ZM139.671 18.0215L139.083 18.001C139.088 17.4951 139.154 17.028 139.281 16.5996C139.409 16.1667 139.598 15.7907 139.849 15.4717C140.099 15.1527 140.411 14.9066 140.785 14.7334C141.159 14.5557 141.592 14.4668 142.084 14.4668C142.43 14.4668 142.749 14.5169 143.041 14.6172C143.333 14.7129 143.586 14.8656 143.8 15.0752C144.014 15.2848 144.18 15.5537 144.299 15.8818C144.417 16.21 144.477 16.6064 144.477 17.0713V22H143.212V17.1328C143.212 16.7454 143.146 16.4355 143.014 16.2031C142.886 15.9707 142.704 15.8021 142.467 15.6973C142.23 15.5879 141.952 15.5332 141.633 15.5332C141.259 15.5332 140.947 15.5993 140.696 15.7314C140.446 15.8636 140.245 16.0459 140.095 16.2783C139.944 16.5107 139.835 16.7773 139.767 17.0781C139.703 17.3743 139.671 17.6888 139.671 18.0215ZM144.463 17.3242L143.615 17.584C143.62 17.1784 143.686 16.7887 143.813 16.415C143.946 16.0413 144.135 15.7087 144.381 15.417C144.632 15.1253 144.939 14.8952 145.304 14.7266C145.668 14.5534 146.085 14.4668 146.555 14.4668C146.951 14.4668 147.302 14.5192 147.607 14.624C147.917 14.7288 148.177 14.8906 148.387 15.1094C148.601 15.3236 148.763 15.5993 148.872 15.9365C148.981 16.2738 149.036 16.6748 149.036 17.1396V22H147.765V17.126C147.765 16.7113 147.699 16.39 147.566 16.1621C147.439 15.9297 147.257 15.7679 147.02 15.6768C146.787 15.5811 146.509 15.5332 146.186 15.5332C145.908 15.5332 145.661 15.5811 145.447 15.6768C145.233 15.7725 145.053 15.9046 144.907 16.0732C144.761 16.2373 144.65 16.4264 144.572 16.6406C144.499 16.8548 144.463 17.0827 144.463 17.3242Z" fill="white"/>
</svg>
