<svg width="106" height="25" viewBox="0 0 106 25" fill="none" xmlns="http://www.w3.org/2000/svg">
<g id="Vector">
<path d="M27.1571 7.49789H0.526709V24.5H27.1571V7.49789Z" fill="#10242B"/>
<path d="M23.9032 12.4196L23.8669 12.4302V21.7509H7.91589L3.21454 24.498H27.1816V10.5253L23.9032 12.4196Z" fill="#23B1A9"/>
<path d="M20.5845 7.00416V7.09892H18.6726L16.2976 2.61543H11.7406L9.92389 0.5H18.0031L20.5845 7.00416Z" fill="#23B1A9"/>
<path d="M27.1816 7.09877V9.24625L23.8667 11.212V9.8148H3.40597V21.7506H5.68425L0.984061 24.4978H0.0909424V7.09877H7.44353L6.7408 8.96791L8.80129 7.87011C9.1256 7.69715 9.3863 7.42688 9.546 7.09805L27.1816 7.09877Z" fill="#23B1A9"/>
<path d="M11.7402 2.61529H11.7078L9.54687 7.09588C9.54687 7.09675 9.54598 7.09776 9.54598 7.09877C9.38624 7.42762 9.12551 7.69789 8.80115 7.87083L6.7408 8.96863L9.92374 0.50073L11.7402 2.61529Z" fill="#45D291"/>
<path d="M33.6766 17.5106H34.807C34.8575 18.2393 35.084 18.8139 35.4864 19.2346C35.8887 19.6552 36.4409 19.8655 37.143 19.8656C37.5727 19.8704 37.9962 19.7643 38.372 19.5578C38.7348 19.3618 39.026 19.0574 39.2041 18.688C39.3818 18.3366 39.4759 17.9496 39.479 17.5567C39.4895 17.1089 39.3558 16.6696 39.0973 16.3021C38.8118 15.9256 38.4177 15.6438 37.967 15.4941C37.8345 15.4429 37.3459 15.2888 36.5012 15.0319C35.6565 14.7749 35.0331 14.4235 34.631 13.9774C34.2287 13.5312 34.0276 12.9387 34.0276 12.2001C34.0328 11.9141 34.0739 11.6297 34.1499 11.3537C34.2321 11.0329 34.3688 10.7284 34.5542 10.453C34.7327 10.1812 34.9542 9.93961 35.2102 9.73746C35.4782 9.53262 35.7806 9.37616 36.1033 9.27524C36.8314 9.04665 37.6135 9.04932 38.34 9.28289C38.71 9.40016 39.0491 9.59752 39.3326 9.86068C39.633 10.142 39.8743 10.4794 40.0425 10.8535C40.2312 11.2726 40.33 11.726 40.3326 12.185H39.2032C39.1918 11.8524 39.1139 11.5253 38.974 11.2228C38.8271 10.9047 38.5913 10.6351 38.2945 10.4457C37.9349 10.2269 37.5175 10.1197 37.0959 10.1377C36.768 10.1382 36.4444 10.2118 36.1491 10.3529C35.8298 10.5108 35.5741 10.7714 35.4239 11.0921C35.2459 11.4402 35.1544 11.8254 35.1569 12.2156C35.145 12.622 35.2774 13.0197 35.531 13.3394C35.7804 13.6475 36.3987 13.9401 37.386 14.217C38.19 14.4428 38.7625 14.6608 39.1036 14.8713C39.41 15.0532 39.6879 15.2787 39.9282 15.5406C40.148 15.7966 40.3165 16.0919 40.4246 16.4105C40.6792 17.1719 40.6683 17.9959 40.3939 18.7505C40.25 19.1479 40.0298 19.5138 39.7454 19.8281C39.4413 20.1612 39.0691 20.4262 38.6534 20.6054C38.1863 20.8063 37.6814 20.906 37.1723 20.898C36.7054 20.9003 36.242 20.8171 35.8056 20.6524C35.3857 20.4967 35.0033 20.2556 34.683 19.9446C34.3661 19.6351 34.1142 19.2662 33.9421 18.8596C33.7621 18.4324 33.6718 17.9734 33.6766 17.5106Z" fill="white"/>
<path d="M50.5191 15.8645V20.7815H49.4496V19.1963H49.4195C49.0748 19.7349 48.6064 20.1849 48.0525 20.5096C47.4785 20.8332 46.827 20.9969 46.1668 20.9834C45.5699 20.9861 44.9784 20.8726 44.4257 20.6493C43.8882 20.4348 43.3998 20.115 42.99 19.7091C42.5779 19.2981 42.2534 18.8093 42.0358 18.2716C41.8034 17.7014 41.6866 17.0915 41.692 16.4767C41.6953 15.949 41.7909 15.4258 41.9744 14.9304C42.1631 14.4066 42.4478 13.9218 42.8141 13.5004C43.2033 13.0577 43.6857 12.705 44.2273 12.467C44.8276 12.2017 45.4789 12.069 46.1362 12.0783C47.5212 12.0783 48.6081 12.5838 49.3808 13.4613C49.3809 13.4618 50.4644 14.5813 50.5191 15.8645ZM46.1016 13.12C45.6707 13.1197 45.2441 13.2058 44.8478 13.3734C44.4488 13.5393 44.0886 13.7849 43.7896 14.0949C43.4839 14.4122 43.2428 14.785 43.0795 15.1927C42.907 15.6171 42.8196 16.0707 42.8222 16.5283C42.8252 16.8955 42.8839 17.2603 42.9962 17.6103C43.1342 18.0234 43.3553 18.4046 43.646 18.7308C43.9574 19.1 44.3539 19.3896 44.802 19.5751C45.2217 19.7575 45.6741 19.8542 46.1324 19.8593C46.5624 19.8608 46.9883 19.7758 47.3843 19.6095C47.7802 19.4431 48.138 19.1989 48.4359 18.8915C49.0456 18.2593 49.3843 17.4176 49.3808 16.5431C49.3823 16.0914 49.2977 15.6435 49.1315 15.2229C48.972 14.8144 48.736 14.4394 48.4359 14.1177C48.1415 13.8025 47.784 13.5515 47.3862 13.3811C46.9809 13.2066 46.5435 13.1176 46.1016 13.1199V13.12Z" fill="white"/>
<path d="M51.5972 20.7461V9.21303H52.8707V20.7461H51.5972Z" fill="white"/>
<path d="M63.125 16.8952H55.2976C55.3278 17.2994 55.4367 17.694 55.6183 18.0572C55.7949 18.4155 56.0363 18.7386 56.3305 19.0106C56.6293 19.2861 56.9801 19.5005 57.3626 19.6416C57.7668 19.7921 58.1955 19.8678 58.6273 19.865C58.9909 19.8584 59.3517 19.8013 59.6993 19.6955C60.1212 19.5681 60.5095 19.3501 60.8365 19.0569C61.1929 18.7521 61.4817 18.3775 61.6849 17.9567H62.9175C62.5974 18.8287 62.0131 19.5813 61.2444 20.1114C60.4758 20.6362 59.5612 20.9104 58.6279 20.8959C58.0172 20.8994 57.4115 20.787 56.8434 20.565C56.2978 20.3538 55.7999 20.0373 55.3788 19.6339C54.963 19.2344 54.6337 18.7554 54.4107 18.2258C53.9658 17.1696 53.9514 15.9836 54.3705 14.9171C54.5731 14.3889 54.8745 13.9032 55.2589 13.4858C55.6647 13.0486 56.1582 12.7 56.7077 12.4625C57.3128 12.2001 57.9677 12.0689 58.6282 12.0777C59.3355 12.0624 60.0368 12.2099 60.6767 12.5087C61.2318 12.7706 61.7171 13.1582 62.0932 13.64C62.4499 14.1054 62.7158 14.6325 62.8774 15.1944C63.0404 15.747 63.1237 16.3195 63.125 16.8952ZM55.2983 15.8639H61.8444C61.7457 15.3704 61.5469 14.9018 61.26 14.4866C60.9724 14.0773 60.5948 13.738 60.1557 13.4941C59.6894 13.2344 59.1621 13.1017 58.6273 13.1093C57.8303 13.0968 57.0561 13.3732 56.4504 13.8865C55.8412 14.3889 55.4329 15.09 55.2986 15.8639H55.2983Z" fill="white"/>
<path d="M105.908 16.8952H98.0817C98.1117 17.2994 98.2204 17.6941 98.4017 18.0574C98.5786 18.4154 98.82 18.7385 99.1139 19.0107C99.413 19.2861 99.7638 19.5006 100.146 19.6418C100.551 19.7923 100.979 19.868 101.411 19.8651C101.775 19.8585 102.136 19.8015 102.483 19.6957C102.905 19.5682 103.293 19.3501 103.62 19.0571C103.977 18.7524 104.266 18.3777 104.469 17.9568H105.701C105.381 18.8288 104.797 19.5814 104.029 20.1115C103.26 20.6362 102.345 20.9104 101.412 20.896C100.801 20.8995 100.195 20.7872 99.6273 20.5651C99.0817 20.3539 98.5839 20.0374 98.1628 19.634C97.7468 19.2346 97.4173 18.7556 97.1943 18.2259C96.7498 17.1696 96.7354 15.9839 97.154 14.9172C97.3568 14.3891 97.6582 13.9035 98.0425 13.4859C98.4483 13.0489 98.9416 12.7004 99.4908 12.4627C100.096 12.2003 100.751 12.0691 101.412 12.0779C102.119 12.0625 102.82 12.21 103.46 12.5089C104.015 12.7709 104.501 13.1584 104.877 13.6402C105.234 14.1056 105.5 14.6327 105.661 15.1946C105.824 15.747 105.907 16.3194 105.909 16.8949L105.908 16.8952ZM104.628 15.8639C104.529 15.3704 104.33 14.9019 104.044 14.4866C103.756 14.0772 103.378 13.7378 102.939 13.4941C102.473 13.2344 101.946 13.1017 101.411 13.1093C100.614 13.0968 99.8396 13.3731 99.2339 13.8865C98.6242 14.3885 98.2154 15.0898 98.0813 15.8639H104.628Z" fill="white"/>
<path d="M64.0814 18.2191H65.259C65.2413 18.4543 65.2739 18.6906 65.3545 18.9125C65.4523 19.1857 65.6363 19.4204 65.8793 19.5819C66.1584 19.776 66.4932 19.8758 66.8341 19.8666C67.0747 19.8629 67.3124 19.8132 67.5339 19.7202C67.7842 19.6174 67.9938 19.4364 68.1307 19.2047C68.2827 18.965 68.3628 18.6874 68.3615 18.4043C68.3693 18.0769 68.2529 17.7584 68.0353 17.5118C67.8177 17.2655 67.3642 17.0295 66.6748 16.804C65.8049 16.527 65.2082 16.2012 64.8849 15.8267C64.5577 15.4421 64.3849 14.9518 64.3993 14.4491C64.3906 14.1356 64.4468 13.8237 64.5645 13.5325C64.6822 13.2414 64.8588 12.9773 65.0836 12.7565C65.5398 12.305 66.1499 12.0792 66.914 12.0792C67.2259 12.0728 67.5363 12.1251 67.8286 12.2333C68.0806 12.3315 68.3164 12.4663 68.5284 12.6334C68.7571 12.8247 68.9439 13.0605 69.0773 13.326C69.2426 13.65 69.3247 14.0095 69.3161 14.3725H68.1382C68.1349 14.1802 68.0972 13.99 68.027 13.8106C67.9444 13.601 67.7933 13.4249 67.5978 13.3104C67.3835 13.1768 67.1348 13.1074 66.8816 13.1105C66.6302 13.0965 66.3804 13.1581 66.165 13.2873C65.9495 13.4164 65.7785 13.6071 65.6744 13.8342C65.5702 14.0614 65.5378 14.3144 65.5814 14.5601C65.625 14.8059 65.7425 15.0328 65.9185 15.2112C66.1469 15.4525 66.6006 15.6757 67.2795 15.8808C68.1708 16.1575 68.7701 16.4806 69.0776 16.8501C69.3913 17.2375 69.555 17.7233 69.5391 18.2197C69.5412 18.693 69.4293 19.16 69.2127 19.5819C68.9971 20.0059 68.6481 20.3489 68.2183 20.5589C67.7595 20.7876 67.2519 20.9038 66.7383 20.8975C66.2538 20.911 65.774 20.7996 65.346 20.5742C64.956 20.3562 64.636 20.0335 64.423 19.6432C64.1871 19.2057 64.0694 18.7151 64.0814 18.2191Z" fill="white"/>
<path d="M77.1999 20.6282C76.6149 20.9008 75.9757 21.0404 75.3293 21.037C74.7363 21.0387 74.1489 20.9245 73.6006 20.7009C73.0602 20.484 72.5706 20.1592 72.1622 19.7468C71.75 19.329 71.4249 18.8348 71.2057 18.2924C70.974 17.7233 70.8571 17.1148 70.8615 16.5013C70.869 16.0751 70.9333 15.6517 71.0527 15.2422C71.1974 14.7429 71.4279 14.272 71.7339 13.8502C72.0379 13.4076 72.4313 13.0322 72.8892 12.7478C73.2836 12.4971 73.7183 12.3147 74.1744 12.2083C74.5435 12.1248 74.9205 12.0802 75.2991 12.0754C76.7376 12.0754 77.8189 12.6384 78.543 13.7646H78.5736V9.26027H79.7061V17.0438C79.5184 19.6646 77.1999 20.6282 77.1999 20.6282ZM75.2989 13.1234C74.9428 13.1282 74.5895 13.1862 74.2508 13.2954C73.8083 13.4491 73.404 13.6947 73.0649 14.0157C72.7259 14.3366 72.4599 14.7256 72.2847 15.1566C71.9414 15.9657 71.9007 16.8696 72.17 17.7058C72.2925 18.1021 72.4956 18.4694 72.7667 18.7851C73.0677 19.1352 73.434 19.4246 73.8455 19.6373C74.3025 19.8762 74.8129 19.9973 75.3296 19.9892C75.7672 19.9898 76.2004 19.9037 76.6039 19.7358C77.0074 19.5679 77.3728 19.3216 77.6787 19.0116C77.983 18.6985 78.2222 18.3291 78.3824 17.9245C78.5509 17.5067 78.6367 17.0607 78.6349 16.6109C78.6375 16.1463 78.5544 15.6852 78.3897 15.2502C78.2356 14.8376 77.9989 14.46 77.6938 14.1402C77.3888 13.8204 77.0218 13.5649 76.6147 13.389C76.1997 13.2105 75.7515 13.12 75.2991 13.1232L75.2989 13.1234Z" fill="white"/>
<path d="M80.895 20.8965V12.1805H81.9642V13.4391H81.9944C82.1169 13.1976 82.2741 12.9749 82.461 12.778C82.6886 12.5362 82.9641 12.3436 83.2704 12.2122C83.5938 12.0652 83.9454 11.9891 84.3012 11.9892H84.393V13.1684C84.1064 13.1839 83.8247 13.2485 83.5604 13.3594C83.2769 13.4723 83.016 13.6341 82.7896 13.8373C82.5518 14.0586 82.3642 14.3275 82.2395 14.6262C82.0917 14.9767 82.019 15.3537 82.0258 15.7335V20.8962L80.895 20.8965Z" fill="white"/>
<path d="M85.1864 11.1132V9.10542H86.3167V11.1132H85.1864ZM85.1864 20.8968V12.1808H86.3167V20.8968H85.1864Z" fill="white"/>
<path d="M91.2188 20.8969L87.6605 12.1808H88.8817L91.8145 19.3991L94.7467 12.1808H95.9686L92.3949 20.8969H91.2188Z" fill="white"/>
</g>
</svg>
